<mxfile host="65bd71144e" modified="2021-01-07T06:23:49.445Z" agent="5.0 (Windows NT 10.0; Win64; x64) AppleWebKit/537.36 (KHTML, like Gecko) Code/1.52.1 Chrome/83.0.4103.122 Electron/9.3.5 Safari/537.36" etag="tSJzN1FGrKI2lVdskC9j" version="13.10.0" type="embed">
    <diagram id="m0uo6x0Q3WK_TqAoGtDG" name="Page-1">
        <mxGraphModel dx="1141" dy="790" grid="1" gridSize="10" guides="1" tooltips="1" connect="1" arrows="1" fold="1" page="1" pageScale="1" pageWidth="827" pageHeight="1169" math="0" shadow="0">
            <root>
                <mxCell id="0"/>
                <mxCell id="1" parent="0"/>
                <mxCell id="16" value="PHY Request" style="edgeStyle=orthogonalEdgeStyle;rounded=0;orthogonalLoop=1;jettySize=auto;html=1;dashed=1;" parent="1" source="2" target="4" edge="1">
                    <mxGeometry relative="1" as="geometry"/>
                </mxCell>
                <mxCell id="21" value="NET Confirm" style="edgeStyle=orthogonalEdgeStyle;rounded=0;orthogonalLoop=1;jettySize=auto;html=1;exitX=0.75;exitY=0;exitDx=0;exitDy=0;entryX=0.75;entryY=1;entryDx=0;entryDy=0;dashed=1;" parent="1" source="2" target="3" edge="1">
                    <mxGeometry y="-37" relative="1" as="geometry">
                        <mxPoint x="1" as="offset"/>
                    </mxGeometry>
                </mxCell>
                <mxCell id="2" value="DLL" style="html=1;" parent="1" vertex="1">
                    <mxGeometry x="170" y="250" width="110" height="50" as="geometry"/>
                </mxCell>
                <mxCell id="15" value="NET Request" style="edgeStyle=orthogonalEdgeStyle;rounded=0;orthogonalLoop=1;jettySize=auto;html=1;dashed=1;exitX=0.25;exitY=1;exitDx=0;exitDy=0;entryX=0.25;entryY=0;entryDx=0;entryDy=0;" parent="1" source="3" target="2" edge="1">
                    <mxGeometry y="-37" relative="1" as="geometry">
                        <Array as="points">
                            <mxPoint x="198" y="210"/>
                            <mxPoint x="198" y="210"/>
                        </Array>
                        <mxPoint as="offset"/>
                    </mxGeometry>
                </mxCell>
                <mxCell id="3" value="NET" style="html=1;" parent="1" vertex="1">
                    <mxGeometry x="170" y="120" width="110" height="50" as="geometry"/>
                </mxCell>
                <mxCell id="17" style="edgeStyle=orthogonalEdgeStyle;rounded=0;orthogonalLoop=1;jettySize=auto;html=1;entryX=0.5;entryY=1;entryDx=0;entryDy=0;" parent="1" source="4" target="9" edge="1">
                    <mxGeometry relative="1" as="geometry">
                        <Array as="points">
                            <mxPoint x="225" y="460"/>
                            <mxPoint x="495" y="460"/>
                        </Array>
                    </mxGeometry>
                </mxCell>
                <mxCell id="4" value="PHY" style="html=1;" parent="1" vertex="1">
                    <mxGeometry x="170" y="370" width="110" height="50" as="geometry"/>
                </mxCell>
                <mxCell id="19" value="NET Indication" style="edgeStyle=orthogonalEdgeStyle;rounded=0;orthogonalLoop=1;jettySize=auto;html=1;entryX=0.5;entryY=1;entryDx=0;entryDy=0;dashed=1;" parent="1" source="7" target="8" edge="1">
                    <mxGeometry relative="1" as="geometry"/>
                </mxCell>
                <mxCell id="7" value="DLL" style="html=1;" parent="1" vertex="1">
                    <mxGeometry x="440" y="250" width="110" height="50" as="geometry"/>
                </mxCell>
                <mxCell id="8" value="NET" style="html=1;" parent="1" vertex="1">
                    <mxGeometry x="440" y="120" width="110" height="50" as="geometry"/>
                </mxCell>
                <mxCell id="18" value="PHY indication" style="edgeStyle=orthogonalEdgeStyle;rounded=0;orthogonalLoop=1;jettySize=auto;html=1;entryX=0.5;entryY=1;entryDx=0;entryDy=0;dashed=1;" parent="1" source="9" target="7" edge="1">
                    <mxGeometry relative="1" as="geometry"/>
                </mxCell>
                <mxCell id="9" value="PHY" style="html=1;" parent="1" vertex="1">
                    <mxGeometry x="440" y="370" width="110" height="50" as="geometry"/>
                </mxCell>
                <mxCell id="12" value="" style="line;strokeWidth=1;fillColor=none;align=left;verticalAlign=middle;spacingTop=-1;spacingLeft=3;spacingRight=3;rotatable=0;labelPosition=right;points=[];portConstraint=eastwest;dashed=1;direction=south;" parent="1" vertex="1">
                    <mxGeometry x="358" y="120" width="8" height="330" as="geometry"/>
                </mxCell>
                <mxCell id="13" value="Node A" style="text;html=1;strokeColor=none;fillColor=none;align=center;verticalAlign=middle;whiteSpace=wrap;rounded=0;dashed=1;opacity=50;" parent="1" vertex="1">
                    <mxGeometry x="191" y="470" width="54" height="20" as="geometry"/>
                </mxCell>
                <mxCell id="14" value="Node B" style="text;html=1;strokeColor=none;fillColor=none;align=center;verticalAlign=middle;whiteSpace=wrap;rounded=0;dashed=1;opacity=50;" parent="1" vertex="1">
                    <mxGeometry x="474" y="470" width="54" height="20" as="geometry"/>
                </mxCell>
            </root>
        </mxGraphModel>
    </diagram>
</mxfile>